<svg width="16" height="16" viewBox="0 0 16 16" fill="none" xmlns="http://www.w3.org/2000/svg">
<path d="M14.2503 11.0505C13.6899 10.4515 12.6408 9.55058 12.6408 6.59961C12.6418 5.54061 12.2715 4.51438 11.5936 3.69747C10.9157 2.88056 9.97258 2.32406 8.92652 2.12371V1.52269C8.92652 1.40147 8.9025 1.28143 8.85584 1.16944C8.80917 1.05745 8.74078 0.955688 8.65455 0.869972C8.56832 0.784257 8.46596 0.716263 8.3533 0.669874C8.24064 0.623485 8.11989 0.599609 7.99795 0.599609C7.87601 0.599609 7.75526 0.623485 7.64261 0.669874C7.52995 0.716263 7.42758 0.784257 7.34136 0.869972C7.25513 0.955688 7.18673 1.05745 7.14007 1.16944C7.0934 1.28143 7.06938 1.40147 7.06938 1.52269V2.12371C6.02333 2.32406 5.08022 2.88056 4.40232 3.69747C3.72442 4.51438 3.35411 5.54061 3.35511 6.59961C3.35511 9.55058 2.30604 10.4515 1.7456 11.0505C1.58574 11.22 1.49779 11.4442 1.50004 11.6765C1.50015 11.798 1.52434 11.9182 1.57122 12.0303C1.61811 12.1424 1.68677 12.2443 1.77328 12.33C1.85979 12.4158 1.96245 12.4837 2.07539 12.5299C2.18834 12.5762 2.30935 12.5999 2.4315 12.5996H13.5685C13.6907 12.5999 13.8117 12.5762 13.9246 12.5299C14.0376 12.4837 14.1402 12.4158 14.2268 12.33C14.3133 12.2443 14.3819 12.1424 14.4288 12.0303C14.4757 11.9182 14.4999 11.798 14.5 11.6765C14.5011 11.4436 14.4117 11.2193 14.2503 11.0505Z" stroke="black" stroke-width="1.2"/>
<path d="M7 1.09961H9V2.09961L8.5 2.64961H8H7.5L7 2.09961V1.09961Z" fill="black"/>
<path d="M10 14C10 14.5304 9.78929 15.0391 9.41421 15.4142C9.03914 15.7893 8.53043 16 8 16C7.46957 16 6.96086 15.7893 6.58579 15.4142C6.21071 15.0391 6 14.5304 6 14L8 14H10Z" fill="black"/>
</svg>
