<svg width="16" height="16" viewBox="0 0 16 16" fill="none" xmlns="http://www.w3.org/2000/svg">
<path d="M12.7001 14H13.4001C14.5047 14 15.4001 13.1046 15.4001 12V8.96444C15.4001 8.65888 15.3301 8.35738 15.1954 8.08309L13.2493 4.11865C12.9131 3.43391 12.2167 3 11.4539 3H10.3501M9.8501 14H8.0001H6.1501M3.3001 14H2.6001C1.49553 14 0.600098 13.1046 0.600098 12V8.5" stroke="black" stroke-width="1.2"/>
<path d="M0.600098 2.59998C0.600098 1.49541 1.49553 0.599976 2.6001 0.599976H9.4001C9.95238 0.599976 10.4001 1.04769 10.4001 1.59998V7.59998C10.4001 8.70455 9.50467 9.59998 8.4001 9.59998H0.600098V2.59998Z" stroke="black" stroke-width="1.2"/>
<path d="M13.6001 9.59998H14.5817C15.0337 9.59998 15.4001 9.23355 15.4001 8.78154C15.4001 8.66195 15.3739 8.54381 15.3233 8.43544L14.2304 6.09358C14.0899 5.79245 13.7877 5.59998 13.4554 5.59998C12.983 5.59998 12.6001 5.9829 12.6001 6.45527V8.59998C12.6001 9.15226 13.0478 9.59998 13.6001 9.59998Z" stroke="black" stroke-width="1.2"/>
<path d="M5 15.4C5.82843 15.4 6.5 14.7285 6.5 13.9C6.5 13.0716 5.82843 12.4 5 12.4C4.17157 12.4 3.5 13.0716 3.5 13.9C3.5 14.7285 4.17157 15.4 5 15.4Z" stroke="black" stroke-width="1.2"/>
<path d="M11 15.4C11.8284 15.4 12.5 14.7285 12.5 13.9C12.5 13.0716 11.8284 12.4 11 12.4C10.1716 12.4 9.5 13.0716 9.5 13.9C9.5 14.7285 10.1716 15.4 11 15.4Z" stroke="black" stroke-width="1.2"/>
</svg>
