<svg width="11" height="10" viewBox="0 0 11 10" fill="none" xmlns="http://www.w3.org/2000/svg">
<path d="M6.17749 4.99939L10.2101 0.808766C10.2777 0.739124 10.2209 0.63332 10.1164 0.63332H8.89049C8.81829 0.63332 8.74916 0.661445 8.70153 0.709659L5.37558 4.16636L2.04962 0.709659C2.00353 0.661445 1.9344 0.63332 1.86066 0.63332H0.634741C0.530277 0.63332 0.473436 0.739124 0.54103 0.808766L4.57366 4.99939L0.54103 9.19002C0.525889 9.20554 0.516175 9.22453 0.513041 9.24472C0.509908 9.26491 0.513487 9.28546 0.523353 9.30394C0.53322 9.32241 0.54896 9.33803 0.568704 9.34893C0.588449 9.35984 0.611368 9.36558 0.634741 9.36546H1.86066C1.93286 9.36546 2.00199 9.33734 2.04962 9.28912L5.37558 5.83243L8.70153 9.28912C8.74762 9.33734 8.81675 9.36546 8.89049 9.36546H10.1164C10.2209 9.36546 10.2777 9.25966 10.2101 9.19002L6.17749 4.99939Z" fill="black" fill-opacity="0.85"/>
</svg>
