<svg width="14" height="16" viewBox="0 0 14 16" fill="none" xmlns="http://www.w3.org/2000/svg">
<path d="M1 4.0026H2.33333M2.33333 4.0026H13M2.33333 4.0026V13.3359C2.33333 13.6896 2.47381 14.0287 2.72386 14.2787C2.97391 14.5288 3.31304 14.6693 3.66667 14.6693H10.3333C10.687 14.6693 11.0261 14.5288 11.2761 14.2787C11.5262 14.0287 11.6667 13.6896 11.6667 13.3359V4.0026H2.33333ZM4.33333 4.0026V2.66927C4.33333 2.31565 4.47381 1.97651 4.72386 1.72646C4.97391 1.47641 5.31304 1.33594 5.66667 1.33594H8.33333C8.68696 1.33594 9.02609 1.47641 9.27614 1.72646C9.52619 1.97651 9.66667 2.31565 9.66667 2.66927V4.0026M5.66667 7.33594V11.3359M8.33333 7.33594V11.3359" stroke="black" stroke-width="1.5" stroke-linecap="round" stroke-linejoin="round"/>
</svg>
