<svg width="24" height="25" viewBox="0 0 24 25" fill="none" xmlns="http://www.w3.org/2000/svg">
<rect y="0.632812" width="24" height="24" rx="12" fill="#666666"/>
<path d="M7.52 14.1368V8.25681H9.212V14.1368C9.212 15.7928 8.156 16.7168 6.608 16.7168C5.036 16.7168 3.932 15.7688 3.932 14.0768H5.612C5.624 14.7848 5.948 15.2168 6.584 15.2168C7.208 15.2168 7.52 14.7968 7.52 14.1368ZM15.0358 8.14881C16.9078 8.14881 18.3958 9.09681 18.9358 10.7768H17.0038C16.6198 10.0688 15.9238 9.69681 15.0358 9.69681C13.5358 9.69681 12.4918 10.7648 12.4918 12.4328C12.4918 14.1368 13.5478 15.1928 15.1078 15.1928C16.4037 15.1928 17.2318 14.4488 17.4838 13.2608H14.6038V11.9768H19.1398V13.4408C18.8038 15.1448 17.2798 16.7048 15.0478 16.7048C12.6118 16.7048 10.7638 14.9408 10.7638 12.4328C10.7638 9.92481 12.6118 8.14881 15.0358 8.14881Z" fill="white"/>
</svg>
