<svg width="38" height="42" viewBox="0 0 38 42" fill="none" xmlns="http://www.w3.org/2000/svg">
<path fill-rule="evenodd" clip-rule="evenodd" d="M11.0348 0H26.8223C32.6352 0 37.3474 4.63831 37.3474 10.36V25.9C37.3474 31.6215 32.6352 36.26 26.8223 36.26H11.0348C5.22206 36.26 0.509888 31.6215 0.509888 25.9V10.36C0.509888 4.63831 5.22206 0 11.0348 0ZM13.1682 6.58005H24.689C28.0666 6.58005 30.8048 9.27528 30.8048 12.5999V23.9397C30.8048 24.0526 30.8024 24.1638 30.8048 24.2724C30.8789 27.7989 33.4196 31.0065 34.2183 32.8997C34.2199 32.9035 34.2219 32.902 34.2183 32.8997C30.736 30.5411 27.0807 29.9877 25.6845 29.9597C25.3652 29.9533 25.0496 29.9597 24.689 29.9597H13.1683C9.79066 29.9597 7.0525 27.2644 7.0525 23.9397V12.5999C7.0525 9.27528 9.79066 6.58005 13.1683 6.58005H13.1682ZM28.3162 37.38H37.4901V37.7299C37.4901 40.0881 35.5479 42 33.152 42H23.9777V41.65C23.9777 39.2917 25.92 37.38 28.3162 37.38Z" fill="black"/>
</svg>
