<?xml version="1.0" standalone="no"?>
<!DOCTYPE svg PUBLIC "-//W3C//DTD SVG 20010904//EN"
 "http://www.w3.org/TR/2001/REC-SVG-20010904/DTD/svg10.dtd">
<svg version="1.0" xmlns="http://www.w3.org/2000/svg"
 width="1538.000000pt" height="645.000000pt" viewBox="0 0 1538.000000 645.000000"
 preserveAspectRatio="xMidYMid meet">

<g transform="translate(0.000000,645.000000) scale(0.100000,-0.100000)"
fill="#000000" stroke="none">
<path d="M1420 6382 c0 -38 -3 -117 -7 -175 l-6 -107 -192 0 c-106 0 -284 4
-396 10 -463 21 -770 32 -776 26 -6 -6 4 -57 49 -247 l20 -85 -20 -45 c-18
-41 -20 -63 -18 -289 2 -240 3 -246 30 -320 15 -41 27 -84 28 -95 0 -28 20
-117 29 -135 5 -8 18 -42 30 -75 21 -56 22 -82 26 -405 4 -330 5 -346 25 -374
17 -24 19 -32 8 -55 -7 -14 -13 -69 -15 -122 -1 -53 -6 -102 -10 -108 -3 -7 1
-23 9 -36 9 -14 21 -58 26 -98 10 -84 19 -110 55 -168 20 -31 29 -63 37 -133
12 -108 12 -118 0 -266 -12 -153 -35 -200 -126 -259 -36 -24 -70 -49 -77 -57
-19 -23 -13 -60 14 -96 14 -18 36 -57 49 -87 22 -51 27 -55 83 -75 94 -33 105
-57 105 -225 -1 -75 -7 -284 -15 -466 -29 -677 -48 -1216 -43 -1221 7 -7 356
-20 908 -35 483 -13 2209 -14 2640 -2 l265 8 0 125 c0 80 -4 135 -13 152 -6
15 -14 51 -17 80 -4 46 -10 57 -40 82 -20 16 -43 42 -51 57 -8 16 -20 29 -27
29 -7 0 -30 9 -52 20 -22 11 -53 20 -71 20 -43 0 -158 89 -186 144 -73 146
-189 246 -283 246 -15 0 -33 16 -59 53 -41 61 -60 72 -137 82 -50 7 -60 13
-137 85 l-83 78 15 35 c7 19 16 59 17 88 3 48 -10 93 -115 391 -65 186 -123
338 -127 338 -5 0 -134 -50 -286 -111 -153 -61 -284 -114 -292 -117 -22 -8
-12 18 109 307 60 145 110 269 110 275 0 6 -136 67 -301 135 -215 89 -296 127
-285 133 13 7 185 80 518 217 l76 32 -30 72 c-125 302 -208 510 -204 515 3 3
135 -48 293 -112 159 -64 291 -116 294 -116 3 0 61 133 129 295 67 162 126
295 129 295 4 0 63 -133 130 -295 68 -162 128 -295 133 -295 5 0 100 37 211
82 235 95 215 79 471 363 309 342 419 430 651 519 77 29 170 67 207 84 111 50
278 168 265 188 -8 14 -107 9 -144 -6 -42 -18 -74 -4 -107 49 -37 58 -77 68
-191 46 -50 -9 -119 -17 -155 -17 -36 0 -81 -4 -101 -9 -20 -5 -43 -7 -50 -4
-13 5 -59 86 -73 128 -3 9 -14 17 -24 17 -24 0 -118 -61 -197 -127 -68 -56
-90 -64 -192 -68 -64 -3 -73 -1 -73 15 0 12 -12 20 -42 26 -38 8 -43 13 -46
39 -4 34 -24 51 -71 60 -81 15 -107 34 -141 97 l-33 61 -59 -7 c-85 -9 -99
-18 -96 -67 2 -42 -13 -61 -42 -56 -22 4 -69 97 -70 138 0 58 -19 73 -97 79
-75 6 -91 24 -40 48 15 7 27 18 27 23 0 12 -51 34 -100 43 -19 4 -60 19 -90
34 -47 23 -70 27 -164 31 -131 4 -180 -8 -201 -49 -12 -23 -25 -31 -67 -39
-29 -6 -75 -12 -102 -13 -54 -3 -58 0 -86 79 -11 30 -15 32 -76 37 -213 19
-195 15 -206 47 l-10 30 -87 -3 c-79 -3 -89 -1 -128 24 -62 40 -74 64 -77 155
-2 43 -14 116 -26 163 -12 47 -25 123 -30 169 -7 78 -10 87 -39 113 -29 26
-38 28 -111 28 l-80 0 0 -68z"/>
<path d="M7650 4843 c-411 -32 -741 -136 -927 -291 -80 -68 -163 -179 -193
-260 -51 -133 -51 -136 -48 -1005 l3 -812 27 -81 c102 -300 414 -477 968 -549
168 -22 643 -31 870 -16 179 12 453 43 570 64 l65 12 3 168 c2 160 2 168 -16
163 -38 -12 -372 -65 -517 -82 -217 -26 -674 -26 -840 0 -149 23 -267 56 -365
103 -100 48 -197 144 -231 228 l-24 60 -3 750 c-3 801 -1 837 45 932 72 147
211 230 471 282 343 70 965 41 1430 -64 l22 -5 0 164 0 164 -62 11 c-106 18
-376 50 -517 61 -123 9 -624 11 -731 3z"/>
<path d="M10458 3583 l-3 -1218 -24 -70 c-28 -85 -74 -134 -151 -162 -107 -40
-338 -54 -551 -33 -95 10 -311 43 -367 57 l-23 5 3 -148 3 -149 70 -12 c222
-38 791 -43 995 -9 342 56 484 159 553 403 l22 78 3 1238 3 1237 -265 0 -265
0 -3 -1217z"/>
<path d="M11802 3333 l3 -1468 232 -3 233 -2 2 1232 3 1233 156 -195 c85 -107
220 -278 300 -380 80 -102 262 -333 405 -515 143 -181 404 -512 579 -735 175
-223 361 -458 412 -522 l93 -118 320 0 320 0 0 1470 0 1470 -235 0 -235 0 -2
-1207 -3 -1206 -280 350 c-154 192 -588 735 -965 1206 l-685 856 -328 1 -327
0 2 -1467z"/>
</g>
</svg>
