<svg width="20" height="20" viewBox="0 0 20 20" fill="none" xmlns="http://www.w3.org/2000/svg">
<path d="M17.425 9.26561C17.425 13.3406 14.4667 17.1573 10.425 18.2739C10.15 18.3489 9.85001 18.3489 9.57501 18.2739C5.53334 17.1573 2.57501 13.3406 2.57501 9.26561V5.60726C2.57501 4.92393 3.09169 4.14893 3.73336 3.8906L8.375 1.99062C9.41667 1.56563 10.5917 1.56563 11.6333 1.99062L16.275 3.8906C16.9083 4.14893 17.4334 4.92393 17.4334 5.60726L17.425 9.26561Z" stroke="black" stroke-width="1.5" stroke-linecap="round" stroke-linejoin="round"/>
<path d="M9.99998 10.4193C10.9205 10.4193 11.6666 9.67308 11.6666 8.7526C11.6666 7.83213 10.9205 7.08594 9.99998 7.08594C9.07951 7.08594 8.33331 7.83213 8.33331 8.7526C8.33331 9.67308 9.07951 10.4193 9.99998 10.4193Z" stroke="black" stroke-width="1.5" stroke-miterlimit="10" stroke-linecap="round" stroke-linejoin="round"/>
<path d="M10 10.4219V12.9219" stroke="black" stroke-width="1.5" stroke-miterlimit="10" stroke-linecap="round" stroke-linejoin="round"/>
</svg>
