<svg width="24" height="24" viewBox="0 0 24 24" fill="none" xmlns="http://www.w3.org/2000/svg">
<path d="M20.5899 10.5496V7.11957C20.5899 5.88957 19.6499 4.52957 18.4999 4.09957L13.5099 2.22957C12.6799 1.91957 11.3199 1.91957 10.4899 2.22957L5.49991 4.10957C4.34991 4.53957 3.40991 5.89957 3.40991 7.11957V14.5496C3.40991 15.7296 4.18991 17.2796 5.13991 17.9896L9.43991 21.1996C10.1399 21.7396 11.0699 21.9996 11.9999 21.9996" stroke="black" stroke-width="1.5" stroke-linecap="round" stroke-linejoin="round"/>
<path d="M16 20C18.2091 20 20 18.2091 20 16C20 13.7909 18.2091 12 16 12C13.7909 12 12 13.7909 12 16C12 18.2091 13.7909 20 16 20Z" stroke="black" stroke-width="1.5" stroke-linecap="round" stroke-linejoin="round"/>
<path d="M20.9955 21H21.0045" stroke="black" stroke-width="2" stroke-linecap="round" stroke-linejoin="round"/>
</svg>
