<svg width="17" height="17" viewBox="0 0 17 17" fill="none" xmlns="http://www.w3.org/2000/svg">
<path d="M7.64012 10.1529C8.67473 10.1529 9.51345 9.3142 9.51345 8.27958C9.51345 7.24497 8.67473 6.40625 7.64012 6.40625C6.6055 6.40625 5.76678 7.24497 5.76678 8.27958C5.76678 9.3142 6.6055 10.1529 7.64012 10.1529Z" stroke="black" stroke-width="1.5" stroke-linecap="round" stroke-linejoin="round"/>
<path d="M11.1001 14.4685C11.1001 12.9151 9.55345 11.6484 7.64011 11.6484C5.72678 11.6484 4.18011 12.9085 4.18011 14.4685" stroke="black" stroke-width="1.5" stroke-linecap="round" stroke-linejoin="round"/>
<path d="M14.0001 9.33333C14.0001 12.8333 11.1668 15.6667 7.66677 15.6667C4.16677 15.6667 1.33344 12.8333 1.33344 9.33333C1.33344 5.83333 4.16677 3 7.66677 3C8.5401 3 9.37344 3.17333 10.1334 3.49333C10.0468 3.75999 10.0001 4.04 10.0001 4.33333C10.0001 4.83333 10.1401 5.30667 10.3868 5.70667C10.5201 5.93333 10.6934 6.13998 10.8934 6.31331C11.3601 6.73998 11.9801 7 12.6668 7C12.9601 7 13.2401 6.95332 13.5001 6.85999C13.8201 7.61999 14.0001 8.46 14.0001 9.33333Z" stroke="black" stroke-width="1.5" stroke-linecap="round" stroke-linejoin="round"/>
<path d="M15.3335 4.33073C15.3335 4.54406 15.3068 4.75072 15.2535 4.95072C15.1935 5.21739 15.0868 5.47739 14.9468 5.70406C14.6268 6.24406 14.1135 6.66405 13.5001 6.85738C13.2401 6.95071 12.9601 6.9974 12.6668 6.9974C11.9801 6.9974 11.3601 6.73738 10.8935 6.31071C10.6935 6.13738 10.5201 5.93073 10.3868 5.70406C10.1401 5.30406 10.0001 4.83073 10.0001 4.33073C10.0001 4.0374 10.0468 3.75739 10.1335 3.49072C10.2601 3.10406 10.4735 2.75741 10.7535 2.47074C11.2401 1.97074 11.9201 1.66406 12.6668 1.66406C13.4535 1.66406 14.1668 2.00407 14.6468 2.55074C15.0735 3.02407 15.3335 3.65073 15.3335 4.33073Z" stroke="black" stroke-width="1.5" stroke-miterlimit="10" stroke-linecap="round" stroke-linejoin="round"/>
<path d="M13.6601 4.32031H11.6735" stroke="black" stroke-miterlimit="10" stroke-linecap="round" stroke-linejoin="round"/>
<path d="M12.6668 3.34375V5.33708" stroke="black" stroke-miterlimit="10" stroke-linecap="round" stroke-linejoin="round"/>
</svg>
